<svg xmlns="http://www.w3.org/2000/svg" xmlns:xlink="http://www.w3.org/1999/xlink" width="500" zoomAndPan="magnify" viewBox="0 0 375 374.999991" height="500" preserveAspectRatio="xMidYMid meet" version="1.0"><defs><clipPath id="715c724ff1"><path d="M 77 196 L 322.570312 196 L 322.570312 207 L 77 207 Z M 77 196 " clip-rule="nonzero"/></clipPath><clipPath id="c41718c93f"><path d="M 189 52.207031 L 212 52.207031 L 212 75 L 189 75 Z M 189 52.207031 " clip-rule="nonzero"/></clipPath><clipPath id="0b815fc887"><path d="M 63.820312 222 L 122 222 L 122 313.957031 L 63.820312 313.957031 Z M 63.820312 222 " clip-rule="nonzero"/></clipPath></defs><g clip-path="url(#715c724ff1)"><path fill="#db2777" d="M 322.574219 206.867188 L 77.171875 206.867188 L 77.171875 196.058594 L 322.574219 196.058594 L 322.574219 206.867188 " fill-opacity="1" fill-rule="nonzero"/></g><g clip-path="url(#c41718c93f)"><path fill="#db2777" d="M 211.5 63.34375 C 211.5 69.484375 206.527344 74.464844 200.390625 74.464844 C 194.261719 74.464844 189.289062 69.484375 189.289062 63.34375 C 189.289062 57.203125 194.261719 52.226562 200.390625 52.226562 C 206.527344 52.226562 211.5 57.203125 211.5 63.34375 " fill-opacity="1" fill-rule="nonzero"/></g><path fill="#db2777" d="M 128.171875 172.9375 L 108.371094 172.9375 C 108.371094 87.816406 176.320312 79.710938 200.398438 79.710938 C 136.273438 79.710938 128.171875 172.9375 128.171875 172.9375 Z M 199.871094 74.152344 C 80.171875 74.152344 98.171875 185.847656 98.171875 185.847656 L 302.777344 185.847656 C 302.777344 185.847656 319.574219 74.152344 199.871094 74.152344 " fill-opacity="1" fill-rule="nonzero"/><g clip-path="url(#0b815fc887)"><path fill="#db2777" d="M 71.019531 230.136719 L 71.019531 304.871094 L 114.226562 294.835938 L 114.226562 230.136719 Z M 63.824219 313.941406 L 63.824219 222.929688 L 121.421875 222.929688 L 121.421875 300.558594 L 63.824219 313.941406 " fill-opacity="1" fill-rule="nonzero"/></g><path fill="#db2777" d="M 127.722656 226.535156 C 127.722656 226.535156 182.175781 201.464844 238.875 226.535156 L 235.625 231.671875 C 232.324219 236.886719 226.585938 240.046875 220.417969 240.046875 L 186.226562 240.046875 C 186.226562 240.046875 168.957031 246.351562 189.289062 246.351562 C 209.625 246.351562 244.722656 246.351562 244.722656 246.351562 C 244.722656 246.351562 286.128906 216.742188 306.828125 230.871094 L 241.574219 277.878906 L 127.722656 287.339844 L 127.722656 226.535156 " fill-opacity="1" fill-rule="nonzero"/></svg>